<?xml version="1.0" encoding="UTF-8"?>
<svg id="Layer_2" data-name="Layer 2" xmlns="http://www.w3.org/2000/svg" viewBox="0 0 41.71 42.93">
  <defs>
    <style>
      .cls-1, .cls-2 {
        fill: #633a90;
      }

      .cls-2 {
        font-family: Monaco, Monaco;
        font-size: 18.16px;
      }
    </style>
  </defs>
  <g id="Layer_2-2" data-name="Layer 2">
    <path class="cls-1" d="m14.08,4.29c19.11-6.37,23.07,12.12,23.36,13.62-2.6-12.11-12.73-12.64-12.73-12.64,0,0-9.42-2.95-16.06,7.46s3.32,20.21,3.32,20.21c19.76,12.3,27.75-11.99,27.75-11.99,1.06,4.53-1.96,11.47-1.96,11.47,1.06.15,3.7-4.45,3.7-4.45,0,0-1.81,14.63-20.44,14.7C2.39,42.75.28,23.44.28,23.44.28,23.44-1.31,1.19,17.62.29c18.93-.91,22.1,13.2,22.1,13.2,0,0-8.97-17.05-25.64-9.2Z"/>
    <text class="cls-2" transform="translate(12.8 26.43) scale(1.78 1)"><tspan x="0" y="0">A</tspan></text>
  </g>
</svg>